# xmcd
#
# Track frame offsets: 
#        150
#        32340
#        60886
#        85614
#        102141
#        129789
#        154617
#        165699
#        194169
#        213685
#        237776
#        260647
#        285802
#        301462
#
# Disc length: 4368 seconds
#
# Revision: 2
# Processed by: cddbd v1.5.2PL0 Copyright (c) Steve Scherf et al.
# Submitted via: ExactAudioCopy v1.0b3
#
DISCID=ad110e0e
DTITLE=Various Artist - jazz bar 2011
DYEAR=1900
DGENRE=Jazz
TTITLE0=LONGING - TOUHA - EMIL VIKLICKY 
TTITLE1=MISSION - VARGA GABOR JAZZ TRIO 
TTITLE2=TENNESSEE WALTZ - STEVENS,SIEGEL and FERGUSON TRIO
TTITLE3=I WILL WAIT FOR YOU - LISA 
TTITLE4=CIRCLE - TRIOTONIC 
TTITLE5=DOUBLE VISION - KRIS BOWERS 
TTITLE6=OLD FOLKS AT HOME(SWANEE RIVER) - HARRY ALLEN 
TTITLE7=LANGHAM - TRIO THIS 
TTITLE8=WE'RE ALL ALONE - SIMONE KOPMAJER 
TTITLE9=TO WHOM IT MAY CONCERN - ESPEN ERIKSEN TRIO 
TTITLE10=THE LAZIEST GAL IN TOWN - JANE KRAKOWSKI 
TTITLE11=THE LETTER - SOPHISTICATED LADIES 
TTITLE12=MELODIE D'AMOUR - JEAN-PIERRE COMO 
TTITLE13=EAUTIFUL CREATURES - BRIAN BROWNE 
EXTD=
EXTT0=
EXTT1=
EXTT2=
EXTT3=
EXTT4=
EXTT5=
EXTT6=
EXTT7=
EXTT8=
EXTT9=
EXTT10=
EXTT11=
EXTT12=
EXTT13=
PLAYORDER=
